<?xml version="1.0" standalone="no"?>
<!DOCTYPE svg PUBLIC "-//W3C//DTD SVG 20010904//EN"
 "http://www.w3.org/TR/2001/REC-SVG-20010904/DTD/svg10.dtd">
<svg version="1.0" xmlns="http://www.w3.org/2000/svg"
 width="262.000000pt" height="262.000000pt" viewBox="0 0 262.000000 262.000000"
 preserveAspectRatio="xMidYMid meet">
<metadata>
Created by potrace 1.14, written by Peter Selinger 2001-2017
</metadata>
<g transform="translate(0.000000,262.000000) scale(0.100000,-0.100000)"
fill="#000000" stroke="none">
<path d="M390 2603 c0 -7 -9 -13 -20 -13 -18 0 -20 -7 -20 -75 0 -59 3 -75 15
-76 8 -1 20 -3 25 -4 6 -1 15 -3 21 -4 6 0 9 -8 5 -16 -3 -8 -1 -15 5 -15 6 0
6 -7 -1 -19 -7 -14 -7 -22 0 -26 17 -10 -8 -35 -33 -32 -30 3 -43 -29 -39
-100 4 -60 4 -60 35 -61 38 -1 61 -27 47 -53 -7 -12 -6 -19 3 -22 7 -3 3 -6
-8 -8 -11 -1 -24 -3 -30 -4 -5 -2 -18 -3 -28 -4 -16 -1 -18 -10 -16 -76 1 -62
5 -75 19 -80 10 -3 24 -13 32 -22 11 -14 11 -16 -1 -8 -11 6 -12 5 -5 -6 13
-21 14 -39 1 -39 -7 0 -5 -5 3 -10 13 -8 12 -10 -5 -11 -11 -1 -26 -1 -32 0
-9 1 -13 -14 -14 -46 -2 -78 2 -105 18 -130 12 -19 13 -23 2 -23 -11 0 -11 -2
-2 -8 10 -6 9 -14 -2 -35 -17 -34 -27 -427 -10 -427 6 0 3 -5 -5 -10 -11 -7
-11 -10 -2 -10 7 0 10 -5 6 -11 -8 -14 -8 -114 0 -128 4 -5 2 -13 -4 -16 -8
-5 -7 -11 1 -21 9 -11 9 -14 0 -14 -9 0 -9 -5 -1 -20 8 -15 8 -20 -1 -20 -7 0
-4 -9 7 -22 10 -12 13 -18 7 -14 -8 4 -13 1 -13 -9 0 -10 5 -13 13 -9 7 5 6 0
-3 -11 -10 -13 -11 -16 -2 -11 10 6 13 3 12 -10 -5 -42 1 -84 11 -84 5 0 7 5
3 12 -5 7 -3 8 5 3 8 -4 9 -11 3 -17 -10 -10 -4 -56 9 -64 5 -3 9 -16 9 -30 0
-13 5 -24 10 -24 6 0 10 -12 10 -26 0 -15 4 -23 11 -19 6 4 9 0 7 -11 -2 -11
2 -18 9 -17 7 2 10 -3 7 -11 -3 -7 2 -20 10 -29 9 -9 16 -23 16 -32 0 -9 5
-13 10 -10 6 3 10 -1 10 -10 0 -9 4 -13 10 -10 5 3 7 0 4 -8 -3 -8 2 -17 10
-20 9 -4 16 -12 16 -19 0 -8 9 -20 20 -28 11 -8 20 -20 20 -27 0 -12 13 -17
32 -14 4 0 5 -6 2 -14 -4 -10 0 -15 11 -15 9 0 13 -4 10 -10 -3 -5 1 -10 10
-10 10 0 13 -5 9 -12 -5 -8 -2 -9 9 -5 9 3 16 2 14 -2 -3 -14 44 -51 56 -44 6
3 7 1 3 -5 -4 -7 -1 -12 9 -12 9 0 13 -4 10 -10 -3 -5 1 -10 9 -10 9 0 16 -5
16 -11 0 -5 4 -8 9 -5 5 3 11 -1 15 -9 3 -8 15 -15 26 -15 14 0 19 -4 14 -12
-5 -7 -3 -8 5 -4 7 5 21 0 31 -9 10 -9 24 -14 29 -10 6 3 11 -1 11 -9 0 -9 5
-16 11 -16 5 0 7 6 3 13 -6 9 -4 9 7 0 7 -7 24 -13 37 -13 13 0 21 -4 18 -9
-3 -5 1 -11 9 -15 8 -3 15 -1 15 5 0 5 12 1 27 -8 21 -14 25 -15 19 -3 -7 12
-6 13 5 3 7 -7 23 -13 35 -13 12 0 25 -6 27 -12 4 -10 6 -10 6 0 1 6 6 12 12
12 5 0 7 -6 3 -12 -5 -8 0 -7 11 2 10 8 16 10 12 3 -5 -8 3 -11 25 -9 18 1 43
-1 54 -5 12 -4 26 -3 33 4 6 6 11 7 11 1 0 -13 93 -4 102 10 6 8 8 7 8 -1 0
-7 9 -13 21 -13 11 0 17 4 14 10 -4 6 6 8 24 6 17 -2 31 0 31 4 0 5 10 6 22 2
16 -4 19 -2 13 8 -5 8 -4 11 3 6 6 -3 13 -2 17 3 3 6 12 8 20 4 9 -3 23 1 32
8 14 12 16 12 9 -1 -6 -13 -6 -13 6 0 7 9 23 15 36 14 12 -1 20 1 17 4 -2 3 7
11 22 19 14 7 28 11 31 9 2 -3 10 0 18 7 39 35 42 37 47 24 3 -7 6 -5 6 5 1
11 6 15 16 11 10 -3 15 0 13 8 -2 7 2 13 9 14 7 0 19 9 28 20 9 11 14 13 10 5
-4 -8 5 -1 19 15 14 17 26 26 26 22 0 -4 6 -2 14 5 8 7 11 17 8 22 -3 5 -1 6
4 3 6 -3 29 14 52 39 24 24 39 44 35 44 -4 1 2 6 14 13 12 7 22 14 22 17 0 16
14 39 22 34 5 -3 9 4 9 14 0 11 7 23 16 26 9 3 14 13 11 20 -3 8 1 17 9 20 8
3 13 11 12 18 -2 7 2 12 8 11 6 -1 11 3 12 10 3 31 11 52 19 50 5 -1 9 8 8 20
-1 12 5 28 12 36 8 8 12 22 10 32 -3 10 -1 19 5 21 5 2 11 19 14 37 3 19 10
44 14 57 7 18 10 161 14 616 0 40 4 64 10 61 5 -4 6 -1 0 8 -12 19 -13 239 0
232 5 -4 6 -1 0 8 -13 20 -13 113 0 121 8 5 8 8 0 8 -13 0 -13 99 0 119 6 9 5
12 -1 8 -6 -4 -10 8 -10 28 0 20 4 32 10 28 6 -4 7 -1 1 8 -13 20 -13 113 0
121 8 5 8 8 0 8 -13 0 -13 99 0 119 6 9 5 12 -1 8 -6 -4 -10 8 -10 28 0 20 4
32 10 28 6 -4 7 -1 1 8 -13 20 -13 113 0 121 8 6 8 8 0 8 -7 0 -11 16 -10 43
4 70 1 74 -55 72 -30 -1 -49 2 -49 9 0 8 -3 8 -8 0 -9 -13 -112 -14 -112 0 0
8 -3 8 -8 1 -9 -14 -105 -14 -114 0 -5 7 -8 7 -8 -1 0 -14 -110 -13 -110 1 0
7 -3 7 -8 0 -9 -14 -105 -14 -114 0 -5 7 -8 7 -8 -1 0 -14 -110 -13 -110 1 0
7 -3 7 -8 0 -9 -14 -105 -14 -114 0 -5 7 -8 7 -8 -1 0 -14 -102 -13 -112 1 -5
6 -8 5 -8 -4 0 -11 -3 -11 -17 0 -12 10 -15 10 -9 1 5 -9 -1 -12 -23 -10 -17
1 -31 7 -31 13 0 7 -3 6 -8 -1 -9 -13 -82 -13 -82 1 0 5 -5 3 -10 -5 -8 -12
-13 -13 -29 -3 -13 8 -22 9 -26 2 -5 -6 -12 -6 -23 3 -12 10 -14 10 -8 0 5 -9
-1 -12 -23 -10 -17 1 -31 7 -31 13 0 7 -3 6 -8 -1 -9 -13 -82 -13 -82 1 0 5
-5 3 -10 -5 -8 -12 -13 -13 -29 -3 -13 8 -22 9 -26 2 -5 -6 -12 -6 -23 3 -12
10 -14 10 -8 0 5 -9 -1 -12 -23 -10 -17 1 -31 7 -31 13 0 7 -3 6 -8 -1 -9 -13
-82 -13 -82 1 0 5 -5 3 -10 -5 -8 -12 -13 -13 -29 -3 -13 8 -22 9 -26 2 -5 -6
-12 -6 -23 3 -12 10 -14 10 -8 0 5 -9 -1 -12 -23 -10 -17 1 -31 7 -31 13 0 7
-3 6 -8 -1 -9 -13 -82 -13 -82 1 0 5 -5 3 -10 -5 -9 -13 -11 -13 -20 0 -6 10
-10 11 -10 3z"/>
</g>
</svg>
